# xmcd
#
# Track frame offsets:
#	150
#	16683
#	32926
#	47547
#	63605
#	80573
#	96672
#	113345
#	130068
#	146452
#	160384
#	175587
#
# Disc length: 2552 seconds
#
# Revision: 0
# Processed by: cddbd v1.5.2PL0 Copyright (c) Steve Scherf et al.
# Submitted via: audiograbber 1.83.01
#
DISCID=9709f60c
DTITLE=Fernando Express - Die Könige der Tanzpaläste
DYEAR=2010
DGENRE=Schlager
TTITLE0=Fremde augen - Fremde Sterne
TTITLE1=Ich geh durch die Hölle
TTITLE2=Vino in Portofino
TTITLE3=Santo Domingo
TTITLE4=Fliegen bis zum Regenbogen
TTITLE5=Liebe gibt und Liebe nimmt
TTITLE6=Coconut und Calypso
TTITLE7=Die Sonne von Capri
TTITLE8=Barfuss bis ans Ende der Welt
TTITLE9=UnserTraum darf nicht sterben
TTITLE10=Tausend und ein Gefühl
TTITLE11=Tanz auf dem Vulkan
EXTD=
EXTT0=
EXTT1=
EXTT2=
EXTT3=
EXTT4=
EXTT5=
EXTT6=
EXTT7=
EXTT8=
EXTT9=
EXTT10=
EXTT11=
PLAYORDER=
